<svg width="108" height="39" viewBox="0 0 108 39" fill="none" xmlns="http://www.w3.org/2000/svg">
<g opacity="0.5" clip-path="url(#clip0_9_59)">
<path d="M25.3172 17.7324H33.1776C33.1776 17.7324 33.4886 16.5508 32.0887 14.7793C29.3236 11.9219 26.2176 13.8169 26.2176 13.8169C24.6946 14.6246 22.7386 17.9806 23.8861 22.7965C25.3172 27.6133 30.8157 28.6046 34.2322 27.4864C36.4934 26.7467 37.7972 25.1158 38.4246 24.0928C38.6263 23.2652 38.7703 22.4376 38.8611 21.6148H25.3172V17.7324Z" fill="#26201D"/>
<path d="M18.4467 0.02837C10.1521 0.46956 2.75203 6.21004 0.602939 14.6846C-2.04306 25.1157 4.26653 35.7256 14.6967 38.3721C22.1073 40.252 29.6219 37.6119 34.2904 32.1846C32.2377 32.6753 29.8353 32.7081 27.2279 31.8096C18.4961 28.7945 16.8959 20.714 19.0717 15.0596C21.2446 9.40487 28.8529 6.76912 34.1342 10.5596C38.6607 13.806 38.9094 19.59 38.8842 21.1846C39.7172 11.8272 33.6891 2.9771 24.2904 0.59087C22.3348 0.09493 20.3608 -0.07344 18.4467 0.02837ZM8.94669 17.2159C10.3315 17.2159 11.4467 18.332 11.4467 19.7159C11.4467 21.1006 10.3315 22.2159 8.94669 22.2159C7.56291 22.2159 6.41544 21.1006 6.41544 19.7159C6.41545 18.332 7.56291 17.2159 8.94669 17.2159Z" fill="#26201D"/>
<path d="M97.1342 8.80963C95.5833 8.87063 93.9984 9.126 92.6967 9.62213C89.9686 10.7384 88.6029 13.3936 88.6029 16.1846H93.5404C93.4159 14.7589 94.4867 13.4629 95.4779 13.0909C95.9134 12.9063 96.5131 12.7784 97.1342 12.7784C98.3734 12.7173 99.6409 13.0343 100.509 13.8409C101.068 14.398 101.226 15.1284 101.04 15.9346C100.729 17.2369 99.3046 17.6855 97.1342 17.9971C96.3896 18.1201 95.5307 18.1861 94.6029 18.3096C91.9994 18.6198 88.2821 19.9039 87.4154 23.6846C87.1053 25.1739 87.3418 27.919 89.6342 29.7159C91.1846 30.8951 93.3672 31.4356 95.0404 31.3721C95.7851 31.3721 96.5444 31.3091 97.1654 31.1846C98.8989 30.8135 100.241 30.0181 101.54 28.9659C101.603 29.2759 101.918 30.4371 102.165 30.7471H107.384C106.58 29.1358 106.697 26.7984 106.697 25.4971V18.8096C106.636 17.0738 106.631 15.3283 106.259 13.7159C105.886 12.1031 104.474 9.43125 99.8842 8.87213C99.0169 8.81113 98.0634 8.80963 97.1342 8.80963ZM101.353 19.9659C101.353 20.462 101.413 24.001 101.103 24.6846C100.544 26.1714 98.9931 27.0328 97.1342 27.2159C96.7641 27.2769 96.3461 27.3394 95.9154 27.2784C94.6752 27.2784 93.6312 26.6773 93.1967 25.7471C92.7001 24.8169 93.0102 23.8688 93.3217 23.3096C94.0653 22.0084 95.3647 21.7745 97.1654 21.4034C97.7212 21.3424 98.3289 21.214 99.0092 21.0284C100.374 20.7184 100.671 20.462 101.353 19.9659Z" fill="#26201D"/>
<path d="M60.871 11.852C58.7005 9.43317 55.3518 8.37792 51.9422 8.87404C48.8421 9.37067 46.6102 11.1069 45.0598 13.5869C44.2532 15.0132 43.6961 16.6256 43.4471 18.1758C42.9509 21.9591 44.0052 28.2823 50.641 30.7627C53.7396 31.9419 57.6472 31.5073 60.6228 29.3369C62.2967 28.0967 63.973 25.3062 64.0951 23.5703H58.5774C58.3904 24.3149 57.9573 25.3062 56.9647 26.0508C54.7317 27.6621 52.1897 26.6099 51.0736 25.8018C49.4002 24.5616 48.8421 22.5157 48.7801 19.6016C48.7801 18.0523 49.2137 15.5723 50.5164 14.3931C51.9422 13.2144 53.6784 12.9058 55.3518 13.4009C57.1517 13.9595 58.515 15.9434 58.3905 17.7408H50.5785V21.6489H64.0951C64.2196 20.2217 63.973 18.8584 63.724 17.5557C63.2903 15.6343 62.1121 13.2769 60.871 11.852Z" fill="#26201D"/>
<path d="M76.8694 17.6182C75.1946 17.3082 73.2732 17.2457 72.2821 16.131C71.8474 15.6343 71.8475 14.7662 72.0951 14.2696C72.7776 12.9058 74.4525 12.4712 76.0638 12.5943C77.4896 12.5943 78.7923 13.3394 79.3499 14.5797C79.5989 15.0762 79.6615 15.6343 79.722 16.1919H84.3093C84.3718 14.3931 83.6282 12.5332 82.5125 11.3546C81.0857 9.8672 77.7371 8.31694 73.5847 8.93706C71.3503 9.24619 68.3748 10.5498 67.3812 13.4624C66.5129 16.1919 67.3812 18.671 69.0555 19.9737C71.1648 21.588 75.1336 22.0201 76.746 22.3936C78.6062 22.7647 79.5355 23.0137 79.8455 24.066C80.0326 24.7496 79.9701 25.5552 79.5355 26.1143C78.3572 27.6622 75.9392 27.7867 74.0179 27.2276C72.4056 26.7344 71.723 25.4307 71.4128 23.6925H66.5764C66.5764 25.3062 67.0721 26.4243 67.8792 27.7256C68.9325 29.4004 70.7928 30.7627 73.5213 31.1973C76.4968 31.6953 79.5355 31.3218 81.3347 30.3306C82.388 29.708 83.1951 28.9048 83.8772 28.0357C84.8689 26.7954 85.7376 23.6924 84.1863 20.9654C82.8231 18.6094 79.7219 18.1143 76.8694 17.6182Z" fill="#26201D"/>
</g>
<defs>
<clipPath id="clip0_9_59">
<rect width="107.384" height="38.9751" fill="white"/>
</clipPath>
</defs>
</svg>
