<svg width="120" height="40" viewBox="0 0 120 40" fill="none" xmlns="http://www.w3.org/2000/svg">
<g opacity="0.5">
<path d="M51.0662 20.513C51.0662 26.0652 46.6588 30.1565 41.25 30.1565C35.8412 30.1565 31.4338 26.0652 31.4338 20.513C31.4338 14.9217 35.8412 10.8696 41.25 10.8696C46.6588 10.8696 51.0662 14.9217 51.0662 20.513ZM46.7691 20.513C46.7691 17.0435 44.2147 14.6696 41.25 14.6696C38.2853 14.6696 35.7309 17.0435 35.7309 20.513C35.7309 23.9478 38.2853 26.3565 41.25 26.3565C44.2147 26.3565 46.7691 23.9435 46.7691 20.513Z" fill="#26201D"/>
<path d="M72.2426 20.513C72.2426 26.0652 67.8353 30.1565 62.4265 30.1565C57.0176 30.1565 52.6103 26.0652 52.6103 20.513C52.6103 14.9261 57.0176 10.8696 62.4265 10.8696C67.8353 10.8696 72.2426 14.9217 72.2426 20.513ZM67.9456 20.513C67.9456 17.0435 65.3912 14.6696 62.4265 14.6696C59.4618 14.6696 56.9074 17.0435 56.9074 20.513C56.9074 23.9478 59.4618 26.3565 62.4265 26.3565C65.3912 26.3565 67.9456 23.9435 67.9456 20.513Z" fill="#26201D"/>
<path d="M92.5368 11.4522V28.7652C92.5368 35.887 88.275 38.7957 83.2368 38.7957C78.4941 38.7957 75.6397 35.6696 74.5632 33.113L78.3044 31.5783C78.9706 33.1478 80.603 35 83.2324 35C86.4574 35 88.4559 33.0391 88.4559 29.3478V27.9609H88.3059C87.3441 29.1304 85.4912 30.1522 83.153 30.1522C78.2603 30.1522 73.778 25.9522 73.778 20.5478C73.778 15.1043 78.2603 10.8696 83.153 10.8696C85.4868 10.8696 87.3397 11.8913 88.3059 13.0261H88.4559V11.4565H92.5368V11.4522ZM88.7603 20.5478C88.7603 17.1522 86.4618 14.6696 83.5368 14.6696C80.5721 14.6696 78.0883 17.1522 78.0883 20.5478C78.0883 23.9087 80.5721 26.3565 83.5368 26.3565C86.4618 26.3565 88.7603 23.9087 88.7603 20.5478Z" fill="#26201D"/>
<path d="M99.2647 1.30435V29.5652H95.0735V1.30435H99.2647Z" fill="#26201D"/>
<path d="M115.597 23.6869L118.932 25.8782C117.856 27.4478 115.262 30.1522 110.779 30.1522C105.221 30.1522 101.069 25.9174 101.069 20.5087C101.069 14.7739 105.256 10.8652 110.299 10.8652C115.376 10.8652 117.86 14.8478 118.672 17L119.118 18.0956L106.037 23.4348C107.038 25.3696 108.596 26.3565 110.779 26.3565C112.968 26.3565 114.485 25.2956 115.597 23.6869ZM105.331 20.2174L114.075 16.6391C113.594 15.4348 112.147 14.5956 110.444 14.5956C108.26 14.5956 105.221 16.4956 105.331 20.2174Z" fill="#26201D"/>
<path d="M15.5691 18.0043V13.913H29.5588C29.6956 14.6261 29.7662 15.4696 29.7662 16.3826C29.7662 19.4522 28.9147 23.2478 26.1706 25.9522C23.5015 28.6913 20.0912 30.1522 15.5735 30.1522C7.19999 30.1522 0.158813 23.4304 0.158813 15.1783C0.158813 6.92608 7.19999 0.204346 15.5735 0.204346C20.2059 0.204346 23.5059 1.99565 25.9853 4.33043L23.0559 7.21739C21.2779 5.57391 18.8691 4.29565 15.5691 4.29565C9.4544 4.29565 4.67205 9.15217 4.67205 15.1783C4.67205 21.2043 9.4544 26.0609 15.5691 26.0609C19.5353 26.0609 21.7941 24.4913 23.2412 23.0652C24.4147 21.9087 25.1868 20.2565 25.4912 18L15.5691 18.0043Z" fill="#26201D"/>
</g>
</svg>
