<svg width="134" height="31" viewBox="0 0 134 31" fill="none" xmlns="http://www.w3.org/2000/svg">
<g opacity="0.5" clip-path="url(#clip0_9_68)">
<path d="M26.3871 19.4507C27.7164 19.4507 28.1092 19.1175 28.1092 18.4511C28.1092 17.6332 27.0215 17.4211 25.0603 16.997C22.9481 16.5729 19.8967 15.6338 19.8967 12.6979C19.8967 9.39847 22.4924 7.85352 26.2058 7.85352C28.4792 7.85352 30.8383 8.55783 32.4092 9.64334C32.5049 9.70897 32.5326 9.83772 32.4772 9.94122L30.9138 12.8393C30.8508 12.9554 30.7023 12.9958 30.5915 12.9251C29.5266 12.2334 27.7315 11.4887 26.1756 11.4887C24.937 11.4887 24.5467 11.7007 24.5467 12.4278C24.5467 13.0336 25.0905 13.3366 26.5684 13.6395C29.2849 14.2151 32.7567 14.8815 32.7567 18.3021C32.7567 21.2683 30.3725 23.2071 26.659 23.2071C23.7461 23.2071 21.226 22.475 19.6172 21.5536C19.5165 21.4955 19.4788 21.3718 19.5241 21.2658L20.8786 18.0674C20.934 17.9386 21.085 17.8881 21.2059 17.9613C22.4345 18.706 24.7708 19.4533 26.3896 19.4533L26.3871 19.4507Z" fill="#26201D"/>
<path d="M49.2798 8.13876C49.4333 8.14885 49.534 8.30537 49.4787 8.44926L43.3407 24.3229C41.4752 29.1344 39.6373 30.7122 36.8881 30.9697C36.7924 30.9798 36.7018 30.9243 36.659 30.8384L35.2667 27.8874C35.2088 27.7637 35.2743 27.6173 35.4027 27.5718C37.2783 26.9281 38.0764 25.9032 38.6277 24.6561L39.5265 22.475C39.5492 22.4169 39.5492 22.3538 39.5265 22.2958L33.595 8.45431C33.5321 8.30789 33.6328 8.14633 33.7889 8.13623C35.1434 8.0504 36.5482 7.93933 38.026 7.75504C38.1318 7.74242 38.2325 7.80301 38.2677 7.90146L41.5457 16.8177C41.6187 17.0197 41.9057 17.0172 41.9762 16.8127L45.0577 7.90903C45.093 7.80553 45.1962 7.74242 45.3045 7.75757C46.5733 7.93933 47.9102 8.0504 49.2773 8.13623L49.2798 8.13876Z" fill="#26201D"/>
<path d="M68.4036 0C59.8663 0 52.9454 6.93966 52.9454 15.5C52.9454 24.0603 59.8663 31 68.4036 31C76.9408 31 83.8617 24.0603 83.8617 15.5C83.8617 6.93966 76.9408 0 68.4036 0ZM75.7147 23.0253C75.7046 23.1566 75.5863 23.2475 75.4554 23.2298C74.1286 23.0455 72.7993 22.9117 71.4247 22.8486C71.2988 22.8436 71.2006 22.735 71.2057 22.6088C71.324 20.4125 71.465 18.1885 71.465 15.967C71.465 13.3643 70.317 12.0314 68.2953 12.0314C65.9716 12.0314 65.1256 13.6976 65.1256 16.7546V22.7931C65.1256 22.9193 65.0224 23.0228 64.8965 23.0228H60.9162C60.7903 23.0228 60.6871 22.9193 60.6871 22.7931V8.37353C60.6871 8.25236 60.7827 8.15391 60.9011 8.14634C62.2455 8.06303 63.5219 7.95195 64.8638 7.77272C65.0023 7.75505 65.1231 7.86107 65.1231 7.99739V8.82036C65.1231 9.00464 65.3296 9.11319 65.4806 9.00717C66.6035 8.22712 68.1065 7.85855 69.4408 7.85855C74.0304 7.85855 76.1125 11.0368 76.1125 15.3056C76.1125 17.6508 75.9136 20.5918 75.7097 23.0304L75.7147 23.0253Z" fill="#26201D"/>
<path d="M104.191 1.50204L96.4574 14.2782C96.4347 14.3135 96.4246 14.3564 96.4246 14.3968V22.7931C96.4246 22.9193 96.3214 23.0228 96.1955 23.0228H92.0339C91.908 23.0228 91.8048 22.9193 91.8048 22.7931V14.4271C91.8048 14.3842 91.7922 14.3438 91.7721 14.3085L84.0178 1.51466C83.9247 1.36067 84.0354 1.16882 84.2142 1.16882C85.7172 1.16882 87.2202 1.02997 88.7258 0.767434C88.8189 0.752287 88.9121 0.792678 88.9599 0.87346L93.9095 9.16369C93.9976 9.31263 94.2116 9.31263 94.2998 9.16369L99.3375 0.868411C99.3853 0.790154 99.476 0.747238 99.5666 0.762385C101.047 0.997157 102.525 1.11328 104.005 1.15367C104.181 1.15872 104.285 1.35058 104.194 1.49952L104.191 1.50204Z" fill="#26201D"/>
<path d="M108.444 7.85602C113.124 7.85602 116.566 11.1252 116.566 15.5151C116.566 19.9051 113.184 23.2046 108.534 23.2046C103.884 23.2046 100.352 20.1778 100.352 15.5151C100.352 10.9737 104.005 7.85602 108.444 7.85602ZM108.474 12.0642C106.422 12.0642 105.002 13.488 105.002 15.5454C105.002 17.6028 106.392 18.9963 108.504 18.9963C110.616 18.9963 111.915 17.8149 111.915 15.5151C111.915 13.3366 110.556 12.0642 108.474 12.0642Z" fill="#26201D"/>
<path d="M129.561 23.0026V22.162C129.561 21.9752 129.35 21.8691 129.199 21.9777C128.109 22.7653 126.666 23.2046 125.395 23.2046C120.715 23.2046 118.572 20.0263 118.572 15.7575C118.572 13.4123 118.771 10.3855 118.975 7.94438C118.985 7.81311 119.103 7.72223 119.234 7.7399C120.561 7.92418 121.89 8.05797 123.265 8.12109C123.391 8.12613 123.489 8.23216 123.484 8.36091C123.366 10.59 123.225 12.8695 123.225 15.0936C123.225 17.6962 124.252 19.0291 126.394 19.0291C128.718 19.0291 129.564 17.2721 129.564 14.2151V8.17662C129.564 8.0504 129.667 7.9469 129.793 7.9469H133.773C133.899 7.9469 134.003 8.0504 134.003 8.17662V22.5962C134.003 22.7173 133.907 22.8158 133.789 22.8234C132.444 22.9092 131.168 23.0455 129.826 23.2273C129.687 23.2449 129.564 23.1389 129.564 23.0001L129.561 23.0026Z" fill="#26201D"/>
<path d="M0 22.7931V1.16124C0 1.04259 0.0931517 0.941616 0.21148 0.931519C4.54178 0.583147 5.74016 0.525085 7.43703 0.525085C12.6686 0.525085 17.87 3.04194 17.87 9.52973C17.87 15.4116 13.6354 18.6555 8.58758 18.6555C7.11981 18.6555 6.01961 18.6025 4.87158 18.5217C4.74067 18.5116 4.62737 18.6177 4.62737 18.7489V22.7906C4.62737 22.9168 4.52415 23.0203 4.39827 23.0203H0.229103C0.103222 23.0203 0 22.9193 0 22.7906V22.7931ZM8.55737 14.109C10.8862 14.109 12.9431 12.8973 12.9431 9.52973C12.9431 6.77052 11.1279 5.1044 8.04378 5.1044C7.218 5.1044 6.04227 5.13217 4.84641 5.18518C4.72304 5.19023 4.62737 5.29121 4.62737 5.41491V13.7178C4.62737 13.8364 4.71801 13.9349 4.83634 13.9475C6.00199 14.056 7.1324 14.109 8.55989 14.109H8.55737Z" fill="#26201D"/>
</g>
<defs>
<clipPath id="clip0_9_68">
<rect width="134" height="31" fill="white"/>
</clipPath>
</defs>
</svg>
