<svg width="202" height="44" viewBox="0 0 202 44" fill="none" xmlns="http://www.w3.org/2000/svg">
<g opacity="0.5">
<path d="M12.3256 32.1318H35.0626C35.9445 32.1318 36.6594 31.4251 36.6594 30.5534V29.2531C36.6594 28.3813 35.9445 27.6746 35.0626 27.6746L12.3256 27.6746C11.4437 27.6746 10.7288 28.3813 10.7288 29.2531V30.5534C10.7288 31.4251 11.4437 32.1318 12.3256 32.1318Z" fill="#26201D"/>
<path d="M18.9505 24.6104L35.0606 24.6104C35.9425 24.6104 36.6574 23.9037 36.6574 23.0319V21.7317C36.6574 20.8599 35.9425 20.1532 35.0606 20.1532H18.9505C18.0686 20.1532 17.3536 20.8599 17.3536 21.7317V23.0319C17.3536 23.9037 18.0686 24.6104 18.9505 24.6104Z" fill="#26201D"/>
<path d="M25.2919 16.8108H35.0626C35.9445 16.8108 36.6594 16.1041 36.6594 15.2323V13.932C36.6594 13.0602 35.9445 12.3535 35.0626 12.3535L25.2919 12.3535C24.41 12.3535 23.6951 13.0602 23.6951 13.932V15.2323C23.6951 16.1041 24.41 16.8108 25.2919 16.8108Z" fill="#26201D"/>
<path d="M50.8633 25.4845H48.9191V31.6977H43.959V11.9155H51.4282C55.7117 11.9155 58.7277 14.5614 58.7277 18.8529C58.7277 21.5837 57.4602 23.5607 55.4023 24.6203L59.8834 31.6977H54.6398L50.8633 25.4845ZM50.9471 21.3055C52.498 21.3055 53.7096 20.8043 53.7096 18.8529C53.7096 16.9015 52.498 16.4003 50.9471 16.4003H48.9171V21.3035H50.9471V21.3055Z" fill="#26201D"/>
<path d="M61.5182 11.9155H66.4784V31.6977H61.5182V11.9155Z" fill="#26201D"/>
<path d="M72.708 16.4023H68.2549V11.9175H82.1234V16.4023H77.6702V31.6977H72.71V16.4023H72.708Z" fill="#26201D"/>
<path d="M83.8959 11.9155H89.3351L94.944 25.4568L100.553 11.9155H106.022V31.6977H101.062V21.2778H100.92L96.7764 31.6977H93.1396L88.9958 21.2778H88.854V31.6977H83.8939V11.9155H83.8959Z" fill="#26201D"/>
<path d="M108.22 21.8066C108.22 15.7611 112.926 11.6373 118.649 11.6373C124.372 11.6373 129.05 15.7611 129.05 21.8066C129.05 27.8522 124.344 31.976 118.649 31.976C112.954 31.976 108.22 27.8522 108.22 21.8066ZM118.649 27.3234C121.581 27.3234 123.949 25.1786 123.949 21.8066C123.949 18.4346 121.581 16.2899 118.649 16.2899C115.717 16.2899 113.322 18.4346 113.322 21.8066C113.322 25.1786 115.689 27.3234 118.649 27.3234Z" fill="#26201D"/>
<path d="M131.266 11.9155H139.468C144.711 11.9155 149.023 16.0393 149.023 21.8066C149.023 27.574 144.709 31.6977 139.468 31.6977H131.266V11.9155ZM139.3 27.0728C142.344 27.0728 143.837 24.8708 143.837 21.8066C143.837 18.7424 142.344 16.5404 139.3 16.5404H136.228V27.0728H139.3Z" fill="#26201D"/>
<path d="M150.939 11.9155H155.815V16.0669H150.939V11.9155ZM150.939 17.2093H155.815V31.6977H150.939V17.2093Z" fill="#26201D"/>
<path d="M157.59 24.4525C157.59 19.3817 161.255 16.9291 164.524 16.9291C167.089 16.9291 168.47 18.3221 168.582 18.5727H168.666V17.2073H173.542V31.6958H168.666V30.3304H168.582C168.47 30.581 167.089 31.974 164.524 31.974C161.255 31.974 157.59 29.5214 157.59 24.4506V24.4525ZM165.566 27.7121C167.313 27.7121 168.78 26.5144 168.78 24.4525C168.78 22.3907 167.315 21.193 165.566 21.193C163.818 21.193 162.38 22.4183 162.38 24.4525C162.38 26.4868 163.874 27.7121 165.566 27.7121Z" fill="#26201D"/>
<path d="M179.067 36.6581V32.8402C179.772 33.2861 181.237 33.509 182.393 33.509C185.127 33.509 186.395 32.1989 186.395 30.8059V30.3324H186.225C186.111 30.5829 184.788 31.976 182.307 31.976C179.01 31.976 175.317 29.4958 175.317 24.4525C175.317 19.4093 179.01 16.9291 182.307 16.9291C184.788 16.9291 186.111 18.3221 186.225 18.5727H186.395V17.2073H191.271V30.3856C191.271 36.2655 186.565 37.4908 183.323 37.4908C181.83 37.4908 180.053 37.2954 179.067 36.6542V36.6581ZM183.323 27.7141C185.07 27.7141 186.509 26.5164 186.509 24.4545C186.509 22.3926 185.072 21.195 183.323 21.195C181.574 21.195 180.109 22.4203 180.109 24.4545C180.109 26.4888 181.602 27.7141 183.323 27.7141Z" fill="#26201D"/>
</g>
</svg>
