<?xml version="1.0" encoding="UTF-8"?>
<svg id="Calque_1" data-name="Calque 1" xmlns="http://www.w3.org/2000/svg" viewBox="0 0 465.2 164.24">
  <defs>
    <style>
      .cls-1 {
        fill: #fff;
      }
    </style>
  </defs>
  <g>
    <path class="cls-1" d="m136.25,113.18c6.81-.02,13.61-.11,20.42-.25,0,9.56-.46,19.37,1.02,28.76.57,3.63,1.84,5.47,5.1,5.37,2.86-.09,4.51-1.8,5.1-5.48.78-4.86.99-9.89,1.02-14.74.04-6.35.08-11.52-4.49-16.38-5.88-6.24-11.73-12.5-17.56-18.78-8.82-9.45-10.45-21.64-10.62-34.03-.09-7.15.29-14.93,3.06-21.65,4.29-9.48,13.46-13.71,23.48-13.89,9.11-.16,20.22,2.91,23.68,12.46,4.42,12.19,2.85,27.54,2.86,40.27-6.8.37-13.61.7-20.42.97.01-10.58.92-21.74-.61-32.03-.54-3.6-2.65-4.6-5.51-4.51-2.86.09-4.98,1.63-5.51,4.85-.71,4.29-.65,8.88-.61,13.29.07,7.4.21,14.17,5.51,19.86,5.9,6.25,11.82,12.48,17.76,18.69,7.65,8.05,9.27,17.61,9.39,28.29.1,8.41-.36,17.55-3.47,25.51-3.88,9.92-12.97,14.01-23.07,14.46-9.73.43-19.7-3.84-23.68-13.06-4.85-11.23-2.86-26.02-2.86-37.97Z"/>
    <path class="cls-1" d="m199.54,21.94c8.72-.58,17.43-1.24,26.13-1.95,6.43-.65,14.64-.33,19.6,4.4,9.97,10.34,7.35,31.83,7.35,44.63,0,13.21,2.3,32.13-5.72,43.82-3.85,5.4-10.68,8.11-17.15,8.48-3.92.33-5.88.5-9.8.81v37.16c-6.8.53-13.61,1.03-20.42,1.48V21.94Zm24.91,83.9c3.47-.29,5.58-1.52,6.33-4.62,2.32-9.56,1.43-20.41,1.43-30.34,0-9.83.42-19.98-1.02-29.72-.42-2.81-2.25-4.3-6.12-3.98-2.04.17-3.06.25-5.1.41v68.6c1.8-.14,2.69-.22,4.49-.36Z"/>
    <path class="cls-1" d="m263.85,16.48c6.81-.68,13.61-1.38,20.42-2.08v138.83c-6.8.7-13.61,1.4-20.42,2.08V16.48Z"/>
    <path class="cls-1" d="m297.54,13.01c5.58-.58,11.16-1.17,16.74-1.75,8.1,26.39,16.2,52.79,24.3,79.19.24-.11.37-.16.61-.26-2.05-19.09-4.76-38.48-4.9-57.7V9.21c6.8-.68,13.61-1.34,20.42-1.98v138.83c-5.58.52-11.16,1.06-16.74,1.62-8.09-26.4-16.19-52.79-24.3-79.19-.24.11-.37.16-.61.27,2.07,19.02,4.77,38.33,4.9,57.47v23.48c-6.81.71-13.61,1.42-20.42,2.13V13.01Z"/>
    <path class="cls-1" d="m366.95,6.12c12.92-1.12,25.85-2.11,38.79-2.94v17.15c-6.13.39-12.25.81-18.37,1.27v42.06c5.44-.4,10.89-.78,16.33-1.14v15.93c-5.45.36-10.89.74-16.33,1.14v46.55c6.12-.45,12.25-.88,18.37-1.27v17.15c-12.94.82-25.87,1.82-38.79,2.94V6.12Z"/>
    <path class="cls-1" d="m411.87,91.83c6.8-.37,13.61-.7,20.42-.97,0,9.55-.46,19.37,1.02,28.75.57,3.62,1.84,5.44,5.1,5.34,2.86-.09,4.51-1.78,5.1-5.45.78-4.85.99-9.88,1.02-14.73.04-6.35.08-11.54-4.49-16.42-5.83-6.19-11.68-12.36-17.56-18.52-8.9-9.22-10.46-21.3-10.62-33.54-.09-7.21.32-15.02,3.06-21.81C419.22,4.88,428.13.2,438.41,0c9.32-.17,20.25,3.41,23.68,13.06,4.38,12.29,2.85,27.61,2.86,40.42-6.81.02-13.61.11-20.42.25.01-10.58.92-21.74-.61-32.04-.54-3.6-2.65-4.63-5.51-4.54-2.86.09-4.98,1.65-5.51,4.88-.71,4.29-.65,8.89-.61,13.29.07,7.4.21,14.13,5.51,19.82,5.95,6.31,11.87,12.65,17.76,19.01,7.57,8.25,9.27,17.93,9.39,28.73.1,8.34-.33,17.44-3.47,25.32-3.92,9.83-13.14,13.46-23.07,13.89-9.55.41-19.66-3.33-23.68-12.46-4.9-11.12-2.86-25.97-2.86-37.82Z"/>
  </g>
  <g>
    <path class="cls-1" d="m53.11,158.25c-17.7-11.8-35.4-23.6-53.11-35.41v-29.5c17.7,11.8,35.4,23.6,53.11,35.41v29.5Z"/>
    <path class="cls-1" d="m98.27,82.12c-17.7-11.8-35.4-23.6-53.11-35.41v-29.5c17.7,11.8,35.4,23.6,53.11,35.4v29.5Z"/>
    <path class="cls-1" d="m97.69,131.36C65.13,111.05,32.56,90.74,0,70.43v-29.5c32.56,20.31,65.13,40.62,97.69,60.94v29.5Z"/>
  </g>
</svg>